<?xml version="1.0" standalone="no"?>
<!DOCTYPE svg PUBLIC "-//W3C//DTD SVG 20010904//EN"
 "http://www.w3.org/TR/2001/REC-SVG-20010904/DTD/svg10.dtd">
<svg version="1.0" xmlns="http://www.w3.org/2000/svg"
 width="512.000000pt" height="512.000000pt" viewBox="0 0 512.000000 512.000000"
 preserveAspectRatio="xMidYMid meet">
<metadata>
Created by potrace 1.14, written by Peter Selinger 2001-2017
</metadata>
<g transform="translate(0.000000,512.000000) scale(0.100000,-0.100000)"
fill="#000000" stroke="none">
<path d="M2418 4695 c-2 -2 -34 -5 -73 -9 -197 -16 -426 -75 -625 -161 -136
-58 -322 -161 -400 -222 -166 -129 -305 -257 -397 -368 -96 -116 -207 -279
-236 -347 -6 -16 -15 -28 -19 -28 -4 0 -8 -4 -8 -9 0 -4 -14 -39 -32 -77 -17
-38 -32 -71 -33 -74 0 -3 -6 -14 -12 -25 -25 -45 -104 -306 -119 -390 -2 -16
-7 -37 -9 -45 -4 -16 -10 -65 -24 -190 -31 -284 27 -686 139 -970 205 -522
635 -965 1143 -1179 119 -51 271 -101 377 -125 222 -51 554 -64 770 -31 14 2
43 7 64 10 110 16 290 68 446 130 244 97 481 254 685 452 63 61 179 191 208
233 110 159 169 255 218 356 77 160 151 380 175 524 2 14 7 36 9 50 36 188 42
509 11 569 -21 40 -56 62 -109 68 -38 5 -48 1 -92 -33 -138 -105 -166 -124
-236 -162 -162 -89 -298 -120 -519 -119 -203 1 -337 28 -494 101 -71 32 -141
76 -195 121 -92 75 -224 239 -252 312 -6 16 -16 35 -23 43 -31 36 -131 330
-151 445 -21 120 -29 177 -40 290 -4 39 -9 79 -11 90 -5 24 -4 364 0 420 2 22
6 60 9 85 18 140 18 155 0 189 -23 44 -58 68 -105 74 -20 3 -38 3 -40 2z
m-123 -537 c0 -296 7 -402 42 -588 75 -413 229 -740 448 -953 64 -63 199 -165
245 -185 19 -9 42 -21 50 -27 46 -35 262 -103 400 -126 117 -20 417 -18 520 4
149 32 331 102 410 157 l25 18 -11 -101 c-13 -108 -36 -228 -60 -314 -9 -29
-15 -55 -15 -58 0 -4 -13 -38 -47 -120 -63 -150 -197 -387 -254 -446 -7 -8
-30 -35 -50 -60 -113 -140 -315 -314 -474 -407 -129 -75 -374 -182 -452 -197
-10 -2 -47 -10 -83 -19 -273 -66 -551 -68 -834 -7 -109 24 -254 70 -325 103
-25 11 -69 31 -98 45 -145 66 -346 209 -480 341 -141 139 -186 196 -320 407
-16 25 -112 224 -112 231 0 3 -6 20 -14 37 -15 33 -50 138 -49 147 0 3 -4 16
-9 30 -5 14 -12 36 -14 50 -3 13 -11 54 -19 91 -44 206 -38 546 11 754 8 33
16 67 18 75 10 40 61 190 78 230 25 57 105 218 121 245 101 163 169 250 296
375 103 102 136 131 191 170 19 13 37 27 40 31 14 18 144 94 270 157 138 70
344 139 470 157 25 4 47 9 49 11 2 2 11 4 20 4 14 0 16 -30 16 -262z"/>
<path d="M3102 4429 c-72 -27 -102 -110 -66 -184 30 -64 48 -67 402 -67 l315
-1 -356 -351 c-312 -308 -357 -356 -362 -388 -9 -48 13 -106 50 -133 26 -19
42 -20 604 -21 643 -1 626 -3 663 66 23 45 23 87 -2 128 -37 61 -48 62 -482
62 l-393 0 205 201 c394 385 492 484 506 511 34 66 -1 151 -71 175 -36 12
-980 14 -1013 2z"/>
</g>
</svg>
