<?xml version="1.0" standalone="no"?>
<!DOCTYPE svg PUBLIC "-//W3C//DTD SVG 20010904//EN"
 "http://www.w3.org/TR/2001/REC-SVG-20010904/DTD/svg10.dtd">
<svg version="1.0" xmlns="http://www.w3.org/2000/svg"
 width="512.000000pt" height="512.000000pt" viewBox="0 0 512.000000 512.000000"
 preserveAspectRatio="xMidYMid meet">
<metadata>
Created by potrace 1.14, written by Peter Selinger 2001-2017
</metadata>
<g transform="translate(0.000000,512.000000) scale(0.100000,-0.100000)"
fill="#000000" stroke="none">
<path d="M2179 4706 c-2 -2 -17 -7 -34 -10 -16 -3 -46 -9 -65 -14 -247 -66
-436 -144 -613 -253 -43 -27 -82 -49 -87 -49 -5 0 -10 -3 -12 -7 -1 -5 -39
-35 -83 -67 -122 -91 -290 -250 -370 -351 -22 -27 -43 -52 -46 -55 -3 -3 -40
-54 -81 -115 -74 -108 -157 -262 -216 -400 -53 -124 -121 -373 -138 -510 -3
-27 -8 -61 -10 -75 -10 -54 -11 -370 -2 -455 20 -203 88 -464 170 -649 42 -96
149 -297 168 -316 3 -3 25 -34 50 -70 93 -137 267 -323 406 -437 115 -94 338
-235 424 -269 25 -10 54 -23 66 -31 51 -32 347 -126 469 -148 74 -14 148 -25
200 -31 73 -8 330 -8 410 0 56 6 76 9 157 20 61 9 237 53 328 81 247 79 525
236 740 419 52 45 221 218 250 256 14 19 30 38 35 44 25 25 146 207 189 284
96 169 185 404 230 605 l23 102 -94 57 c-52 32 -98 58 -103 58 -5 0 -15 -6
-22 -13 -7 -7 -47 -39 -90 -70 -202 -149 -404 -238 -663 -293 -90 -19 -364
-25 -480 -10 -142 17 -340 79 -487 151 -74 37 -233 135 -248 154 -3 3 -22 19
-43 35 -56 41 -173 160 -238 241 -292 363 -404 879 -289 1335 22 84 62 206 78
236 6 10 25 51 43 89 33 71 158 263 203 312 l25 27 -22 35 c-95 153 -112 173
-128 157z m-430 -528 c-53 -131 -102 -306 -114 -403 -3 -28 -10 -81 -15 -120
-8 -68 -6 -334 4 -385 2 -14 7 -45 10 -70 38 -300 186 -638 390 -895 57 -71
243 -259 293 -295 23 -17 48 -36 56 -43 16 -15 24 -20 157 -100 112 -68 160
-91 273 -136 68 -27 187 -67 232 -77 56 -13 176 -36 225 -42 91 -12 430 -8
495 5 33 7 78 15 100 19 61 9 252 64 328 95 37 15 67 23 67 18 0 -28 -161
-289 -200 -324 -11 -10 -20 -22 -20 -27 0 -17 -233 -246 -299 -294 -36 -27
-68 -51 -71 -54 -3 -3 -27 -20 -55 -38 -27 -17 -54 -35 -60 -40 -26 -21 -220
-113 -308 -146 -89 -33 -280 -84 -382 -101 -67 -12 -446 -15 -505 -5 -30 6
-77 14 -105 20 -27 6 -59 12 -70 14 -118 23 -334 102 -453 167 -260 142 -456
312 -640 554 -32 42 -72 105 -72 114 0 6 -4 11 -10 11 -5 0 -10 5 -10 11 0 7
-13 33 -28 58 -40 66 -105 213 -136 306 -27 80 -68 256 -81 350 -11 73 -14
364 -4 426 4 30 10 72 13 94 14 110 51 253 101 385 38 101 151 313 208 391 94
130 114 153 223 263 130 130 262 227 439 322 22 12 41 22 42 23 2 0 -7 -23
-18 -51z"/>
<path d="M3150 4451 c-1 -12 -2 -257 -1 -278 l1 -23 427 -2 426 -3 -74 -60
c-41 -33 -76 -62 -79 -65 -3 -3 -25 -22 -50 -42 -25 -19 -158 -127 -296 -239
-138 -112 -303 -246 -366 -298 l-116 -94 40 -111 c22 -61 44 -126 50 -143 7
-27 14 -33 36 -34 163 -4 1285 0 1290 6 4 3 7 73 7 153 l1 147 -448 0 c-247 0
-448 2 -448 5 0 6 7 12 115 101 119 97 669 544 755 614 41 33 81 66 88 73 14
12 5 45 -70 248 l-19 52 -634 -1 c-349 0 -635 -3 -635 -6z"/>
</g>
</svg>
